<?xml version="1.0" encoding="UTF-8"?><svg id="Layer_1" xmlns="http://www.w3.org/2000/svg" viewBox="0 0 368.82752 368.82752"><defs><style>.cls-1{fill:#8257e7;}.cls-1,.cls-2,.cls-3,.cls-4{stroke-width:0px;}.cls-2{fill:#fff;}.cls-3{fill:#966af3;}.cls-4{fill:#ad80fb;}</style></defs><circle class="cls-2" cx="184.41376" cy="184.10553" r="184.10553"/><path class="cls-1" d="m115.29274,91.25065c0-49.72341,38.24878-84.14731,98.35401-84.14731,15.84593,0,34.97032,3.82488,53.54829,12.02104C242.60654,6.55693,214.73956,0,185.23337,0c-50.26983,0-95.62195,20.21721-128.95303,52.45546-14.7531,23.49568,10.92822,48.08418,59.0124,38.79519Z"/><path class="cls-1" d="m307.62945,46.99135c27.86696,26.77414,48.6306,69.39421,48.6306,131.68508,0,92.88989-76.49756,169.38745-169.38745,169.38745-100.53964,0-172.66591-74.85833-178.13002-163.92334-3.82488-3.82488-6.01052-7.64976-8.19617-12.56745-.54641,4.37128-.54641,8.19617-.54641,12.56745,0,101.63246,82.50808,184.68697,184.68695,184.68697,101.63246,0,184.14057-82.50807,184.14057-184.68695,0-54.64113-24.0421-103.81813-61.19807-137.14921Z"/><path class="cls-1" d="m159.00563,50.26982c0,4.37129,3.27847,7.64975,7.64975,7.64975s7.64976-3.27847,7.64976-7.64975-3.27847-7.64975-7.64975-7.64975-7.64976,3.82488-7.64976,7.64975Z"/><path class="cls-3" d="m247.52423,91.25065c-48.6306-22.40286-132.7779,0-132.7779,0-47.53776,7.64975-72.67267-14.7531-58.46598-38.79519C25.13491,83.6009,3.27847,124.58173.54641,171.57309c2.18564,5.46411,4.9177,9.28899,8.19617,12.56745,14.20669,12.56745,54.64111,17.48516,114.19992-24.5885,53.54829-37.15595,62.29088-79.77603,124.58173-68.30139Z"/><path class="cls-4" d="m183.04772,260.6381c58.46599-30.59901,93.43631-92.88989,64.47651-169.38745-58.46599-10.92822-69.94062,25.68133-115.29275,61.19805h0c-1.09283,1.09283-10.38181,7.64975-10.92822,8.19617,33.33108-23.49567,81.41525-20.76362,97.80759,19.12439,18.03158,49.177-36.06313,80.86884-36.06313,80.86884Z"/></svg>