<?xml version="1.0" encoding="UTF-8"?><svg id="Layer_1" xmlns="http://www.w3.org/2000/svg" viewBox="0 0 100 100"><defs><style>.cls-1{fill:#8257e7;}.cls-1,.cls-2{stroke-width:0px;}.cls-2{fill:#fff;}</style></defs><circle class="cls-1" cx="50" cy="50" r="50"/><path class="cls-2" d="m29.6875,31.25c-2.58789,0-4.6875,2.09961-4.6875,4.6875,0,1.47461.69336,2.86133,1.875,3.75l21.25,15.9375c1.11328.83008,2.63672.83008,3.75,0l21.25-15.9375c1.18164-.88867,1.875-2.27539,1.875-3.75,0-2.58789-2.09961-4.6875-4.6875-4.6875H29.6875Zm-4.6875,10.9375v20.3125c0,3.44726,2.80273,6.25,6.25,6.25h37.5c3.44726,0,6.25-2.80274,6.25-6.25v-20.3125l-21.25,15.9375c-2.22656,1.66992-5.27344,1.66992-7.5,0l-21.25-15.9375Z"/></svg>