<?xml version="1.0" encoding="utf-8"?>
<!-- Generator: Adobe Illustrator 27.9.6, SVG Export Plug-In . SVG Version: 9.03 Build 54986)  -->
<svg version="1.1" id="Layer_1" xmlns="http://www.w3.org/2000/svg" xmlns:xlink="http://www.w3.org/1999/xlink" x="0px" y="0px"
	 viewBox="0 0 434.8 68" style="enable-background:new 0 0 434.8 68;" xml:space="preserve">
<style type="text/css">
	.st0{fill:#8257E7;}
	.st1{fill:#966AF3;}
	.st2{fill:#AD80FB;}
</style>
<g>
	<path d="M131.5,22.6c-7.7,0-12,4.8-12,12.8s4.6,12.8,12.4,12.8c5.4,0,8.8-2.1,10.6-5.7l-4.4-1.8c-0.8,2.2-3,3.4-6.2,3.4
		c-4,0-6.6-2.3-7.2-6.7h18.1c0.1-0.6,0.2-1.8,0.2-2.7C142.9,27.5,138.9,22.6,131.5,22.6z M124.7,33.4c0.5-4.2,2.9-6.6,6.8-6.6
		c3.7,0,6,2.4,6.5,6.6H124.7L124.7,33.4z"/>
	<path d="M162.9,22.6c-3.6,0-6.7,1.4-8.3,4.6v-4.1h-4.9v24.7h5.3V34.7c0-5.7,3.5-7.7,6.7-7.7c3,0,5.3,1.6,5.3,6.5v14.3h5.3v-16
		C172.1,25.6,168.1,22.6,162.9,22.6L162.9,22.6z"/>
	<rect x="180.1" y="23.1" width="5.3" height="24.7"/>
	<path d="M182.8,12.4c-2.3,0-3.6,1.2-3.6,3.3s1.3,3.3,3.6,3.3s3.5-1.2,3.5-3.3S185.1,12.4,182.8,12.4z"/>
	<path d="M205,15.9c1.2,0,2.1,0.2,2.8,0.7l1-3.9c-0.9-0.7-2.7-1.2-4.6-1.2c-5.5,0-8.6,2.9-8.6,7.9V23H191v4.1h4.6v20.5h5.3V27.2h7.8
		v-4.1h-8v-3.2C200.7,17.1,202.3,15.9,205,15.9L205,15.9z"/>
	<path d="M223.5,22.6c-7.7,0-12,4.8-12,12.8s4.6,12.8,12.4,12.8c5.4,0,8.8-2.1,10.6-5.7l-4.4-1.8c-0.8,2.2-3,3.4-6.2,3.4
		c-4,0-6.6-2.3-7.2-6.7h18.1c0.1-0.6,0.2-1.8,0.2-2.7C234.9,27.5,230.9,22.6,223.5,22.6z M216.7,33.4c0.5-4.2,2.9-6.6,6.8-6.6
		c3.7,0,6,2.4,6.5,6.6H216.7L216.7,33.4z"/>
	<path d="M246.6,27.5v-4.4h-5v24.7h5.3V34.7c0-5,3.3-7.4,6.2-7.4c0,0,1.8-0.1,3.9,0.8v-5c-0.7-0.3-1.7-0.5-2.7-0.5
		C250.5,22.6,247.9,24.3,246.6,27.5z"/>
	<path d="M306.7,31.5c0-10.4-5.9-16.8-15.4-16.8c-9.4,0-15.4,6.4-15.4,16.8c0,9.6,5,15.8,13.3,16.7h0.2c0.9,1,1.9,2.1,2.7,3
		c1,1.1,2,2,3.1,2.8s2.2,1.4,3.4,1.9c1.2,0.5,2.6,0.7,4.2,0.7c0.3,0,0.6,0,0.9,0s0.6-0.1,1-0.1c0.3,0,0.7-0.1,1-0.1
		c0.3-0.1,0.6-0.1,0.9-0.2v-6c-0.2,0.1-0.5,0.2-0.8,0.3s-0.6,0.1-0.9,0.2s-0.6,0.1-0.9,0.1s-0.6,0-0.8,0c-0.9,0-1.8-0.1-2.6-0.4
		c-0.8-0.2-1.5-0.6-2.3-1.1c-0.7-0.4-1.3-1-2-1.6C302.8,45.7,306.7,39.9,306.7,31.5L306.7,31.5z M291.3,43.7
		c-6.1,0-9.8-4.4-9.8-12.2s3.7-12.2,9.8-12.2c6.2,0,9.9,4.4,9.9,12.2S297.5,43.7,291.3,43.7z"/>
	<path d="M330.1,36.4c0,5.2-3.2,7.5-6.9,7.5c-3.1,0-5.1-1.4-5.1-6V23.1h-5.3v16.2c0,6.4,4,8.9,8.9,8.9c4,0,7.1-1.4,8.7-4.5v4h4.9
		V23.1H330L330.1,36.4L330.1,36.4z"/>
	<path d="M353.9,22.6c-7.7,0-12,4.8-12,12.8s4.6,12.8,12.4,12.8c5.4,0,8.8-2.1,10.6-5.7l-4.4-1.8c-0.8,2.2-3,3.4-6.2,3.4
		c-4,0-6.6-2.3-7.2-6.7h18.1c0.1-0.6,0.2-1.8,0.2-2.7C365.4,27.5,361.3,22.6,353.9,22.6z M347.2,33.4c0.5-4.2,2.9-6.6,6.8-6.6
		c3.7,0,6,2.4,6.5,6.6H347.2L347.2,33.4z"/>
	<path d="M405.7,42.5V31.3c0-5.9-4.2-8.7-10.4-8.7c-5.4,0-9.2,2.5-10.4,6.4l4.1,2.2c1-3.1,3.3-4.4,6.4-4.4c3.2,0,5,1.9,5,4.9V33
		l-6.3,1.1c-6.5,1.1-9.6,3.9-9.6,7.7c0,4.3,3.4,6.5,8,6.5c3.6,0,6.8-1.3,8.3-3.7c0.5,2.7,2.4,3.7,5,3.7c1.2,0,2.6-0.2,3.4-0.6V44
		c-0.5,0.1-1.2,0.4-1.8,0.4C406.2,44.3,405.7,43.7,405.7,42.5L405.7,42.5z M400.4,39.6c0,3-3.4,4.7-6.7,4.7c-2.3,0-3.7-1-3.7-2.8
		c0-2,1.7-3.1,5-3.8l5.4-1.1L400.4,39.6L400.4,39.6z"/>
	<path d="M431,19c2.3,0,3.5-1.2,3.5-3.3s-1.2-3.3-3.5-3.3s-3.6,1.2-3.6,3.3C427.5,17.7,428.8,19,431,19z"/>
	<rect x="428.4" y="23.1" width="5.3" height="24.7"/>
	<path d="M107.4,15.2H95.8v4.2h11.7v15.9c0,5.6-1.6,8.4-6.6,8.4c-4.5,0-6-2.6-5.3-8.2l-5,0.9c-1.3,7.2,2.3,11.9,10.3,11.9
		c7.5,0,11.8-4.5,11.8-12v-21L107.4,15.2L107.4,15.2z"/>
	<rect x="372.3" y="11.5" width="5.3" height="36.3"/>
	<rect x="414.3" y="11.5" width="5.3" height="36.3"/>
</g>
<g>
	<g>
		<path class="st0" d="M21.4,17c0-9.1,7-15.4,18-15.4c2.9,0,6.4,0.7,9.8,2.2c-4.5-2.3-9.6-3.5-15-3.5C25,0.3,16.7,4,10.6,9.9
			C7.9,14.2,12.6,18.7,21.4,17z"/>
		<path class="st0" d="M56.6,8.9c5.1,4.9,8.9,12.7,8.9,24.1c0,17-14,31-31,31C16.1,64,2.9,50.3,1.9,34c-0.7-0.7-1.1-1.4-1.5-2.3
			c-0.1,0.8-0.1,1.5-0.1,2.3c0,18.6,15.1,33.8,33.8,33.8c18.6,0,33.7-15.1,33.7-33.8C67.8,24,63.4,15,56.6,8.9z"/>
	</g>
	<path class="st0" d="M29.4,9.5c0,0.8,0.6,1.4,1.4,1.4s1.4-0.6,1.4-1.4c0-0.8-0.6-1.4-1.4-1.4C30,8.1,29.4,8.8,29.4,9.5z"/>
	<path class="st1" d="M45.6,17c-8.9-4.1-24.3,0-24.3,0C12.6,18.4,8,14.3,10.6,9.9C4.9,15.6,0.9,23.1,0.4,31.7c0.4,1,0.9,1.7,1.5,2.3
		c2.6,2.3,10,3.2,20.9-4.5C32.6,22.7,34.2,14.9,45.6,17z"/>
	<path class="st2" d="M33.8,48c10.7-5.6,17.1-17,11.8-31c-10.7-2-12.8,4.7-21.1,11.2l0,0c-0.2,0.2-1.9,1.4-2,1.5
		c6.1-4.3,14.9-3.8,17.9,3.5C43.7,42.2,33.8,48,33.8,48z"/>
</g>
</svg>
