<?xml version="1.0" encoding="UTF-8"?><svg id="Layer_1" xmlns="http://www.w3.org/2000/svg" xmlns:xlink="http://www.w3.org/1999/xlink" viewBox="0 0 259 529"><defs><style>.cls-1{fill:url(#linear-gradient);}.cls-1,.cls-2{stroke-width:0px;}.cls-2{fill:url(#radial-gradient);}</style><radialGradient id="radial-gradient" cx="129.5" cy="264.5" fx="129.5" fy="264.5" r="208.24325" gradientUnits="userSpaceOnUse"><stop offset="0" stop-color="#414042"/><stop offset="1" stop-color="#000"/></radialGradient><linearGradient id="linear-gradient" x1="109.20213" y1="14.69149" x2="149.79787" y2="14.69149" gradientUnits="userSpaceOnUse"><stop offset="0" stop-color="#58595b"/><stop offset="1" stop-color="#6d6e71"/></linearGradient></defs><path class="cls-2" d="m224.5,0H34.5C15.47656,0,0,15.47656,0,34.5v460c0,19.02344,15.47656,34.5,34.5,34.5h190c19.02344,0,34.5-15.47656,34.5-34.5V34.5c0-19.02344-15.47656-34.5-34.5-34.5Zm25.5,494.5c0,14.06055-11.43945,25.5-25.5,25.5H34.5c-14.06055,0-25.5-11.43945-25.5-25.5V34.5c0-14.06055,11.43945-25.5,25.5-25.5h23.19147v6.26593c0,8.2843,6.71576,15,15,15h113.61707c8.28424,0,15-6.7157,15-15v-6.26593h23.19147c14.06055,0,25.5,11.43945,25.5,25.5v460Z"/><rect class="cls-1" x="109.20213" y="10.60638" width="40.59574" height="8.17021" rx="4.0851" ry="4.0851"/></svg>