<?xml version="1.0" encoding="utf-8"?>
<!-- Generator: Adobe Illustrator 27.9.6, SVG Export Plug-In . SVG Version: 9.03 Build 54986)  -->
<svg version="1.1" id="wave" xmlns="http://www.w3.org/2000/svg" xmlns:xlink="http://www.w3.org/1999/xlink" x="0px" y="0px"
	 viewBox="0 0 799 400" style="enable-background:new 0 0 800 400;" xml:space="preserve">
<style type="text/css">
	.st0{fill:#8257E7;}
</style>
<path class="st0" d="M800.5,0c-32.5-0.2-66.9,3-102.7,11.2c-34.9,8-66.9,19.6-95.8,32.9c-72,31.9-176.9,60.9-299.2,32.9
	c-34.9-8-66.9-19.6-95.8-32.9C153.7,20.6,82.5-1.4-0.5,0.1v311.6c83-1.5,154.2,20.5,207.5,44.1c28.8,13.3,60.8,25,95.8,32.9
	c122.3,27.9,227.2-1,299.2-32.9c28.8-13.3,60.8-25,95.8-32.9c35.9-8.2,70.3-11.5,102.7-11.2V0z"/>
</svg>
